<svg xmlns="http://www.w3.org/2000/svg" width="16" height="16" baseProfile="tiny" viewBox="0 0 16 16"><g fill="#222"><path d="M0 1h16v1H0zM0 2h2v1H0zM6 2h2v1H6zM11 2h1v2h-1zM15 2h1v13h-1zM0 3h1v12H0zM3 3h2v2H3zM7 3h2v10H7z"/><path d="M10 3h3v1h-3zM14 3h2v10h-2zM2 4h4v1H2zM10 4h1v3h-1zM12 4h1v3h-1zM2 5h1v7H2zM5 5h1v7H5z"/><path d="M11 6h2v1h-2zM10 8h3v1h-3zM10 9h1v4h-1zM12 9h1v4h-1zM3 11h3v1H3zM3 12h2v1H3z"/><path d="M11 12h2v1h-2zM1 13h1v2H1zM6 13h2v2H6zM11 13h1v2h-1z"/><path d="M2 14h14v1H2z"/></g><g fill="#fff"><path d="M2 2h4v1H2zM9 2h1v12H9zM13 2h1v12h-1zM1 3h1v10H1zM6 3h1v10H6z"/><path d="M10 7h4v1h-4zM2 13h4v1H2z"/></g><g fill="#999"><path d="M8 2h1v1H8zM10 2h1v1h-1zM12 2h1v1h-1zM14 2h1v1h-1zM2 3h1v1H2zM5 3h1v1H5zM2 12h1v1H2zM5 12h1v1H5zM8 13h1v1H8zM10 13h1v1h-1zM12 13h1v1h-1zM14 13h1v1h-1z"/></g><g fill="#0ff"><path d="M0 0h16v1H0zM11 4h1v2h-1zM3 5h2v6H3zM11 9h1v3h-1zM0 15h16v1H0z"/></g></svg>